<?xml version="1.0" encoding="UTF-8" standalone="no"?>
<!-- Created with Inkscape (http://www.inkscape.org/) -->

<svg
   width="132.71559mm"
   height="51.968468mm"
   viewBox="0 0 132.71559 51.968468"
   version="1.1"
   id="svg5"
   sodipodi:docname="adologo_newgen.svg"
   inkscape:version="1.1 (c68e22c387, 2021-05-23)"
   xmlns:inkscape="http://www.inkscape.org/namespaces/inkscape"
   xmlns:sodipodi="http://sodipodi.sourceforge.net/DTD/sodipodi-0.dtd"
   xmlns="http://www.w3.org/2000/svg"
   xmlns:svg="http://www.w3.org/2000/svg">
  <sodipodi:namedview
     id="namedview7"
     pagecolor="#ffffff"
     bordercolor="#666666"
     borderopacity="1.0"
     inkscape:pageshadow="2"
     inkscape:pageopacity="0.0"
     inkscape:pagecheckerboard="0"
     inkscape:document-units="mm"
     showgrid="false"
     inkscape:zoom="0.79998597"
     inkscape:cx="299.38025"
     inkscape:cy="285.63001"
     inkscape:window-width="1858"
     inkscape:window-height="1057"
     inkscape:window-x="-8"
     inkscape:window-y="-8"
     inkscape:window-maximized="1"
     inkscape:current-layer="layer1"
     fit-margin-top="0"
     fit-margin-left="0"
     fit-margin-right="0"
     fit-margin-bottom="0" />
  <defs
     id="defs2" />
  <g
     inkscape:label="Vrstva 1"
     inkscape:groupmode="layer"
     id="layer1"
     transform="translate(-42.939847,-160.2989)">
    <path
       d="m 63.916497,208.94329 c -0.79311,-1.84497 -1.41474,-3.37876 -1.38187,-3.40852 0.0329,-0.0294 0.14481,-0.0736 0.24893,-0.0978 0.1848,-0.0435 0.21687,0.0199 1.38308,2.73708 0.65651,1.53028 1.22062,2.75481 1.25349,2.72194 0.0333,-0.0334 0.36408,-0.78178 0.73598,-1.66377 l 0.67565,-1.60385 -0.4212,-0.97078 c -0.2318,-0.53365 -0.40718,-0.98341 -0.38994,-0.99945 0.0172,-0.0156 0.13348,-0.0505 0.25875,-0.0772 0.22589,-0.0485 0.2294,-0.0438 0.51481,0.62995 0.15814,0.373 0.31197,0.66353 0.34173,0.64468 0.0302,-0.0183 0.17027,-0.32329 0.31197,-0.67725 0.25485,-0.63687 0.25996,-0.64318 0.48314,-0.59618 0.12407,0.0263 0.24693,0.0603 0.27359,0.0756 0.0266,0.0156 -0.1366,0.47131 -0.36248,1.01237 -0.23721,0.56762 -0.39104,1.03693 -0.36408,1.10899 0.0258,0.0688 0.34093,0.81224 0.7007,1.65235 0.43023,1.00375 0.67535,1.4931 0.71604,1.42806 0.0337,-0.0544 0.57814,-1.29969 1.2096,-2.76724 1.07731,-2.50498 1.15879,-2.66703 1.32865,-2.64869 0.0994,0.011 0.22037,0.0345 0.26888,0.0521 0.0568,0.0207 -0.42431,1.22884 -1.33878,3.36262 -0.78528,1.83174 -1.45312,3.35651 -1.48438,3.38858 -0.0314,0.0317 -0.42161,-0.79661 -0.86717,-1.84145 -0.44545,-1.04485 -0.83459,-1.92564 -0.86395,-1.95731 -0.0298,-0.0322 -0.42241,0.80754 -0.87298,1.86571 -0.45016,1.05777 -0.8404,1.93696 -0.86746,1.9534 -0.0271,0.0168 -0.6976,-1.47898 -1.4907,-3.32394 z m 22.78603,3.02139 c -1.47225,-0.4146 -2.49906,-1.75848 -2.49906,-3.27113 0,-1.51265 1.05767,-2.8863 2.5147,-3.26561 0.56491,-0.14722 1.0715,-0.1409 1.69434,0.0199 0.42591,0.11044 0.49085,0.15072 0.50769,0.31438 0.038,0.36328 -0.0622,0.40086 -0.59037,0.22237 -1.27814,-0.43303 -2.63215,0.17969 -3.27573,1.48169 -0.25916,0.52372 -0.28031,0.61612 -0.2783,1.21661 0.003,1.17522 0.55659,2.07325 1.59282,2.58335 0.44586,0.21957 0.56842,0.24582 1.14035,0.24582 0.53745,0 0.70932,-0.0321 1.0703,-0.20123 0.93791,-0.43994 1.59442,-1.3486 1.68642,-2.33551 l 0.0473,-0.50729 h -2.42661 v -0.52613 h 2.93129 l -0.001,0.62003 c -0.002,1.16821 -0.30025,1.88334 -1.07812,2.58605 -0.58996,0.53315 -1.33797,0.85965 -2.05601,0.89723 -0.37691,0.0196 -0.72576,-0.009 -0.97981,-0.0806 z m 45.153273,0.0407 c -0.10492,-0.031 -0.17817,-0.10262 -0.16605,-0.16164 0.0408,-0.19733 2.6056,-6.45727 2.64478,-6.45527 0.0677,0.003 2.74459,6.44975 2.69799,6.49635 -0.016,0.0161 -0.12607,0.0403 -0.24432,0.054 -0.21055,0.0239 -0.22549,0 -0.74651,-1.19908 l -0.53164,-1.22292 -1.1646,0.0203 -1.16459,0.0207 -0.52844,1.2589 c -0.29052,0.69259 -0.54648,1.2559 -0.56843,1.25159 -0.0224,-0.004 -0.12486,-0.0325 -0.22819,-0.063 z m 2.979,-4.13698 c -0.25364,-0.66082 -0.47832,-1.20188 -0.49987,-1.20258 -0.0372,-0.002 -0.90074,2.25404 -0.90074,2.35345 0,0.0278 0.4188,0.0501 0.93091,0.0501 h 0.9309 z m 23.62925,4.08688 c -1.11058,-0.29834 -2.07626,-1.27584 -2.36518,-2.39425 -0.72856,-2.81224 2.19572,-5.18764 4.76924,-3.87432 0.78489,0.40046 1.37596,1.08473 1.65155,1.91 0.21647,0.6514 0.21847,1.58771 0.005,2.19692 -0.59037,1.68131 -2.35386,2.62043 -4.06072,2.16165 z m 2.04941,-0.68748 c 0.6102,-0.28571 1.08552,-0.74761 1.37474,-1.33798 0.20044,-0.40787 0.21968,-0.5163 0.21968,-1.23625 0,-0.71995 -0.0192,-0.82838 -0.21968,-1.23585 -0.28922,-0.59037 -0.76333,-1.05146 -1.38066,-1.34389 -0.45016,-0.21336 -0.57624,-0.23881 -1.18144,-0.23881 -0.61462,0 -0.72576,0.023 -1.17873,0.24623 -1.03301,0.50889 -1.59052,1.40962 -1.59052,2.57232 0,0.80012 0.19533,1.33998 0.67846,1.87743 0.87298,0.97008 2.12487,1.23666 3.27815,0.6968 z M 44.217587,208.64426 c 0,-3.19205 0.006,-3.35019 0.13149,-3.23544 0.0725,0.0661 1.06167,1.24988 2.19852,2.63025 l 2.06694,2.50969 0.0376,-2.52463 0.0376,-2.52492 h 0.52613 l 0.0195,3.25068 c 0.0105,1.78784 -0.006,3.24918 -0.0376,3.24728 -0.0317,-0.002 -0.98732,-1.13684 -2.12406,-2.52222 -1.13684,-1.38497 -2.12607,-2.57232 -2.19852,-2.63847 -0.12527,-0.11434 -0.13149,0.01 -0.13149,2.52182 v 2.64237 h -0.52612 z m 10.22195,0.0493 v -3.3071 h 3.83324 v 0.52613 h -3.23194 v 1.9542 h 2.17968 v 0.52612 h -2.17968 v 3.08162 h 3.45742 v 0.52613 h -4.05872 z m 41.263619,0 v -3.3071 h 3.83324 v 0.52613 h -3.23194 v 1.9542 h 2.17968 v 0.52612 h -2.17968 v 3.08162 h 3.45742 v 0.52613 h -4.05872 z m 8.418094,-0.0493 c 0,-3.19205 0.006,-3.35019 0.13148,-3.23544 0.0725,0.0661 1.06168,1.24988 2.19852,2.63025 l 2.06694,2.50969 0.0376,-2.52463 0.0376,-2.52492 h 0.52613 l 0.0195,3.25068 c 0.0105,1.78784 -0.006,3.24918 -0.0376,3.24728 -0.0317,-0.002 -0.98732,-1.13684 -2.12406,-2.52222 -1.13684,-1.38497 -2.12607,-2.57232 -2.19852,-2.63847 -0.12527,-0.11434 -0.13148,0.01 -0.13148,2.52182 v 2.64237 h -0.52613 z m 10.22195,0.0493 v -3.3071 h 3.83323 v 0.52613 h -3.23194 v 1.9542 h 2.17968 v 0.52612 h -2.17968 v 3.08162 h 3.45742 v 0.52613 h -4.05871 z m 8.49323,0 v -3.3071 l 1.07101,8.5e-4 c 1.2112,8.5e-4 1.47587,0.0536 1.98005,0.39615 0.65761,0.44746 1.00446,1.41354 0.7908,2.20353 -0.1398,0.51601 -0.65461,1.10788 -1.09144,1.2555 -0.0376,0.0128 0.36167,0.57935 0.8874,1.2593 1.22964,1.59012 1.18304,1.49932 0.77166,1.49932 h -0.33081 l -0.96849,-1.27463 -0.96807,-1.27464 -1.61597,-0.006 v 2.55549 h -0.52614 z m 2.4627,0.10923 c 0.95354,-0.39855 1.22523,-1.66377 0.52142,-2.42941 -0.3238,-0.35196 -0.6941,-0.45728 -1.61246,-0.45919 l -0.84552,-0.002 v 3.00646 h 0.82908 c 0.57824,0 0.91326,-0.0353 1.10748,-0.11626 z m 17.37992,0.15384 v -3.04404 h -2.55549 v -0.52613 h 5.71227 v 0.52613 h -2.55549 v 6.08807 h -0.60129 z m 7.66646,-0.26307 v -3.3071 h 0.52613 v 6.6142 h -0.52613 z m 17.21197,-0.0493 c 0,-3.19205 0.006,-3.35019 0.13149,-3.23544 0.072,0.0661 1.06207,1.24988 2.19851,2.63025 l 2.06655,2.50969 0.038,-2.52463 0.0372,-2.52492 h 0.52613 l 0.0199,3.25068 c 0.0101,1.78784 -0.006,3.24918 -0.038,3.24728 -0.031,-0.002 -0.98732,-1.13684 -2.12367,-2.52222 -1.13644,-1.38497 -2.12646,-2.57232 -2.19851,-2.63847 -0.12528,-0.11434 -0.13149,0.01 -0.13149,2.52182 v 2.64237 h -0.52613 z M 47.896887,196.86076 c -0.86395,-0.23841 -1.79565,-0.86676 -2.70581,-1.82422 -1.35441,-1.42536 -2.25123,-3.14545 -2.25123,-4.31677 0,-2.98251 2.40005,-7.22482 6.26806,-11.07919 1.74404,-1.73734 3.28676,-2.9806 4.93099,-3.97304 2.78057,-1.6782 4.57583,-1.81439 5.97573,-0.45367 0.68036,0.66082 1.27103,1.80778 1.49652,2.90464 0.24392,1.18655 0.0881,1.95149 -0.3695,1.8153 -0.26627,-0.0792 -0.41619,-0.27018 -0.80412,-1.02571 -0.29554,-0.57543 -0.44706,-0.78448 -0.67796,-0.93791 -1.3052,-0.86356 -4.3328,0.6999 -7.67829,3.96471 -3.53609,3.45081 -5.96822,7.29307 -6.36407,10.0537 -0.11424,0.7954 -0.0489,1.23615 0.2287,1.54582 0.20513,0.22939 0.2376,0.23961 0.76494,0.2337 0.43413,-0.005 0.66272,-0.0536 1.07961,-0.2301 1.78273,-0.75632 4.24031,-3.05546 7.21861,-6.754 0.86676,-1.07571 2.608,-3.34118 2.85142,-3.70877 0.31989,-0.48344 0.46159,-0.44074 1.27153,0.38282 0.72185,0.73448 1.42496,1.62389 1.69895,2.14962 0.19652,0.37691 0.28972,0.0974 -0.94503,2.82988 -1.32434,2.93089 -1.77641,4.13468 -1.66367,4.42821 0.0791,0.20634 0.57814,0.14571 1.14897,-0.1397 0.89762,-0.44937 1.8657,-1.38147 3.04904,-2.93721 0.6479,-0.85143 1.91902,-2.85373 2.35236,-3.70556 2.54957,-5.00966 8.89881,-10.8491 12.73084,-11.70834 1.18885,-0.26657 2.17577,-0.002 3.06599,0.82206 l 0.45918,0.42512 0.0811,-0.20635 c 0.0446,-0.11384 0.56993,-1.47496 1.16731,-3.02519 0.59739,-1.55023 1.83594,-4.69569 2.75201,-6.99001 0.91607,-2.29443 1.71188,-4.34915 1.769,-4.56681 0.14171,-0.54257 0.16445,-0.56722 0.47061,-0.51751 0.78719,0.12757 2.61061,1.97063 2.76524,2.7946 0.0525,0.2803 -0.0606,0.56962 -1.99799,5.10827 -4.41538,10.34562 -6.66551,16.15028 -7.85206,20.256 -0.61533,2.12997 -0.74851,2.81855 -0.75122,3.88334 -0.002,0.87297 0.006,0.92348 0.186,1.11569 0.15534,0.16636 0.23521,0.19492 0.4631,0.16436 1.03582,-0.137 3.09955,-2.57814 6.90422,-8.16554 0.80052,-1.17592 1.50834,-2.1906 1.57258,-2.25524 0.0641,-0.0646 0.29985,-0.3711 0.52332,-0.68076 0.22359,-0.30967 0.53165,-0.71564 0.68468,-0.90154 0.26627,-0.32339 0.2807,-0.37029 0.33121,-1.073 0.0591,-0.82407 0.1875,-1.32555 0.49476,-1.93346 0.99043,-1.9601 3.58861,-4.00389 5.964809,-4.69247 1.4422,-0.4181 2.10883,-0.23411 3.24677,0.89682 1.248794,1.24057 1.978154,2.66162 2.411884,4.6996 0.20354,0.95665 0.1859,2.86545 -0.036,3.8688 -0.31518,1.42577 -0.77166,2.71995 -1.51656,4.29904 l -0.36529,0.77476 0.20164,-0.045 c 0.30966,-0.0689 1.24918,-0.52071 1.64804,-0.7924 1.01197,-0.68928 2.0043,-1.78112 3.0734,-3.38186 0.45768,-0.68507 0.86085,-1.43779 1.44881,-2.70581 0.44826,-0.96608 0.98842,-2.12527 1.20068,-2.57623 0.21215,-0.45097 0.37691,-0.82598 0.36598,-0.83299 -0.0105,-0.007 -0.23921,-0.14331 -0.50769,-0.30265 -2.10261,-1.24528 -3.00645,-2.68427 -3.00645,-4.78678 0,-1.43709 0.40396,-2.86826 1.34468,-4.76343 1.50634,-3.03422 4.22427,-6.34323 5.98355,-7.28435 0.31077,-0.16635 0.43875,-0.19381 0.743,-0.15934 0.78208,0.0885 1.93886,0.79 2.86475,1.73653 0.96768,0.98922 1.38337,1.82312 1.38768,2.78177 0.007,1.52398 -1.41985,5.35521 -4.01442,10.78056 -0.52112,1.08944 -0.9329,1.99488 -0.91526,2.01292 0.018,0.0176 0.41609,0.20985 0.8851,0.42712 2.10532,0.97439 3.34267,2.0493 3.48989,3.03111 0.0916,0.61031 -0.20594,1.43317 -2.07245,5.73301 -1.65977,3.82301 -2.21756,5.36542 -2.16675,5.98665 0.0211,0.25686 0.0486,0.29203 0.24152,0.31438 0.46469,0.0528 1.36122,-0.42902 2.16755,-1.1658 1.52437,-1.39279 3.70175,-4.26697 4.94382,-6.52572 2.19581,-3.99338 6.03135,-8.03285 9.77028,-10.2897 2.78057,-1.6782 4.57583,-1.81439 5.97574,-0.45367 0.68036,0.66082 1.27102,1.80778 1.49651,2.90464 0.24392,1.18655 0.0881,1.95149 -0.3695,1.8153 -0.26627,-0.0792 -0.41619,-0.27018 -0.80412,-1.02571 -0.29553,-0.57543 -0.44706,-0.78448 -0.67796,-0.93791 -1.3052,-0.86356 -4.3328,0.6999 -7.67829,3.96471 -3.53609,3.45081 -5.96822,7.29307 -6.36407,10.0537 -0.11425,0.7954 -0.0489,1.23615 0.2287,1.54582 0.20513,0.22939 0.2376,0.23961 0.76493,0.2337 0.43414,-0.005 0.66273,-0.0536 1.07962,-0.2301 1.78274,-0.75632 4.24031,-3.05546 7.21861,-6.754 0.86676,-1.07571 2.608,-3.34118 2.85142,-3.70877 0.31989,-0.48344 0.46159,-0.44074 1.27153,0.38282 0.72185,0.73448 1.42496,1.62389 1.69895,2.14962 0.19652,0.37691 0.28972,0.0974 -0.94503,2.82988 -1.32434,2.93089 -1.77642,4.13468 -1.66367,4.42821 0.0791,0.20634 0.57814,0.14571 1.14897,-0.1397 0.89763,-0.44937 1.86571,-1.38147 3.04905,-2.93721 0.9341,-1.22764 3.8196,-5.89265 3.8196,-6.17536 0,-0.11936 0.66703,-1.59523 2.13148,-4.71483 0.19261,-0.40948 0.34093,-0.75041 0.3308,-0.75742 -0.0109,-0.007 -0.23961,-0.14331 -0.50809,-0.30265 -2.10261,-1.24528 -3.00645,-2.68427 -3.00645,-4.78678 0,-1.43709 0.40397,-2.86826 1.34469,-4.76343 1.50674,-3.03422 4.22427,-6.34323 5.98315,-7.28435 0.31156,-0.16635 0.43884,-0.19381 0.74379,-0.15934 0.78128,0.0885 1.93806,0.79 2.86396,1.73653 0.96807,0.98922 1.38377,1.82312 1.38808,2.78177 0.007,1.52398 -1.42026,5.35521 -4.01483,10.78056 -0.52101,1.08944 -0.9329,1.99488 -0.91486,2.01292 0.018,0.0176 0.41569,0.20985 0.8851,0.42712 2.10532,0.97439 3.34308,2.0493 3.49029,3.03111 0.0912,0.61031 -0.20634,1.43317 -2.07245,5.73301 -1.66056,3.82301 -2.21766,5.36542 -2.16755,5.98665 0.0219,0.25686 0.049,0.29203 0.24232,0.31438 0.46389,0.0528 1.36113,-0.42902 2.16675,-1.1658 1.9985,-1.82502 5.05385,-6.17496 6.82757,-9.72008 1.15247,-2.30104 2.3293,-3.98125 3.90338,-5.57176 2.6067,-2.63456 4.87958,-3.42025 6.99001,-2.41649 1.05657,0.50268 1.90329,1.59322 2.22077,2.85924 0.16124,0.64167 0.12527,1.0253 -0.0983,1.05697 -0.13429,0.0192 -0.16004,0.0587 -0.12607,0.19532 0.0741,0.29242 -0.10723,1.582 -0.31347,2.2376 -0.75983,2.41308 -2.72195,4.67845 -4.79671,5.5397 -0.65721,0.27279 -1.538,0.45919 -2.16364,0.45758 -0.98682,-0.003 -2.09821,-0.38522 -2.75662,-0.94813 -0.17658,-0.15143 -0.31789,-0.22429 -0.34685,-0.17809 -0.10803,0.17578 -0.50498,1.43629 -0.64949,2.06694 -0.19532,0.85454 -0.26537,2.4666 -0.14642,3.36543 0.18951,1.41785 0.56652,2.16756 1.26291,2.50809 l 0.41891,0.20514 0.87287,-0.0896 c 2.52462,-0.25915 4.4694,-1.29107 6.73837,-3.57367 1.58931,-1.59994 2.99543,-3.55924 4.3766,-6.0983 0.67956,-1.24958 0.73748,-1.31532 1.17633,-1.31532 0.87879,0 1.726,0.83148 1.88916,1.85398 0.0681,0.42862 -0.11736,1.01388 -0.66033,2.07946 -1.31382,2.58015 -3.83443,5.62378 -6.1523,7.42926 -2.63657,2.05481 -5.62108,2.9802 -7.51024,2.3296 -2.22788,-0.76654 -4.3312,-3.08402 -5.28836,-5.82421 -0.038,-0.11083 -0.13308,-0.0294 -0.49596,0.42672 -1.84496,2.32139 -3.65986,4.09349 -5.03581,4.91676 -0.62515,0.3735 -1.52127,0.69409 -1.93306,0.69169 -0.90584,-0.006 -2.5136,-1.18024 -3.20418,-2.34093 -0.46078,-0.77667 -0.61612,-1.38347 -0.61221,-2.39264 0.009,-1.85518 0.56331,-3.52086 2.55348,-7.66686 1.05146,-2.18991 1.41404,-3.06399 1.52318,-3.66918 0.0913,-0.50499 0.0322,-0.56923 -0.99194,-1.07421 l -0.74459,-0.36719 -0.12528,0.20664 c -0.30175,0.50148 -3.28314,6.40636 -3.4002,6.73487 -0.36488,1.026 -1.59482,3.20177 -2.70511,4.78367 -2.21405,3.15558 -4.35966,5.15948 -6.06693,5.66647 -0.75201,0.22318 -1.24126,0.12998 -2.01793,-0.38362 -1.19828,-0.79311 -2.49677,-2.53325 -2.49677,-3.34749 0,-0.15494 -0.0215,-0.28181 -0.0474,-0.28181 -0.0258,0 -0.38443,0.3237 -0.79701,0.71955 -2.18209,2.0947 -4.33783,3.41273 -5.5819,3.41273 -1.55413,0 -3.66176,-1.71338 -5.04373,-4.10021 -0.0752,-0.12998 -0.13779,-0.0842 -0.67485,0.49486 -1.27143,1.37055 -2.38913,2.34684 -3.33606,2.91366 -0.62404,0.3735 -1.52006,0.69409 -1.93225,0.69169 -0.90625,-0.006 -2.5136,-1.18024 -3.20378,-2.34093 -0.46149,-0.77667 -0.61692,-1.38347 -0.61221,-2.39264 0.009,-1.85518 0.5633,-3.52086 2.55308,-7.66686 1.05115,-2.18991 1.41403,-3.06399 1.52357,-3.66918 0.0912,-0.50539 0.0322,-0.56923 -0.99393,-1.07501 l -0.74651,-0.36759 -0.19301,0.33121 c -0.27399,0.47011 -0.76765,1.52948 -1.14225,2.45096 -1.01238,2.49125 -2.46079,4.73788 -4.11975,6.38952 -1.79135,1.78313 -3.73342,2.76214 -5.971434,3.00917 -0.41809,0.0462 -0.96537,0.0728 -1.21631,0.0591 l -0.45608,-0.025 -0.63145,0.78919 c -1.31884,1.64804 -2.93711,3.08122 -4.265769,3.77722 -1.28716,0.67454 -2.39344,0.87297 -3.24717,0.58375 -1.54792,-0.52503 -3.25699,-1.95931 -4.17968,-3.50683 -0.0772,-0.12918 -0.0991,-0.12056 -0.30064,0.12256 -1.61988,1.9538 -2.68477,2.97629 -3.52246,3.38146 -0.29865,0.14492 -0.42592,0.16406 -0.81426,0.12337 -1.82381,-0.19071 -4.27287,-2.74069 -4.83728,-5.03702 l -0.12728,-0.51831 -0.18279,0.21767 c -2.44786,2.90894 -4.54216,4.67724 -6.14209,5.18533 -0.64238,0.20394 -1.10237,0.22508 -1.65987,0.0768 -1.27223,-0.33863 -2.80793,-1.60154 -3.85938,-3.17322 l -0.36369,-0.54417 -0.68587,0.77317 c -1.39209,1.56977 -2.74179,2.57973 -3.9104,2.92698 -0.75201,0.22318 -1.24126,0.12998 -2.01793,-0.38362 -1.19828,-0.79311 -2.49676,-2.53325 -2.49676,-3.34749 0,-0.15494 -0.0215,-0.28181 -0.0474,-0.28181 -0.0258,0 -0.38443,0.3237 -0.79702,0.71955 -1.34469,1.29097 -2.93991,2.47672 -3.99808,2.97198 -0.92349,0.43213 -1.59483,0.52964 -2.30145,0.33472 z m 1.91632,-0.87258 c 0.92579,-0.38562 2.78127,-1.68531 3.9123,-2.74068 l 0.37581,-0.35075 -0.45097,0.34955 c -1.28756,0.99784 -1.64573,1.2613 -2.39584,1.76318 -1.14577,0.76655 -1.93456,1.13133 -2.61693,1.2104 l -0.54918,0.0638 0.57194,-0.0266 c 0.43022,-0.0203 0.71513,-0.0869 1.15287,-0.26887 z m 75.236583,0 c 0.92579,-0.38562 2.78127,-1.68531 3.9123,-2.74068 l 0.37581,-0.35075 -0.45097,0.34955 c -1.28756,0.99784 -1.64574,1.2613 -2.39585,1.76318 -1.14576,0.76655 -1.93455,1.13133 -2.61691,1.2104 l -0.54919,0.0638 0.57194,-0.0266 c 0.43022,-0.0203 0.71513,-0.0869 1.15287,-0.26887 z m 38.33583,-1.27583 c 0.91988,-0.16947 1.92524,-0.51551 2.64979,-0.91287 0.29945,-0.16445 0.54497,-0.31156 0.54497,-0.3265 0,-0.0152 -0.36367,0.12728 -0.80763,0.31668 -1.37596,0.58686 -2.41809,0.86787 -3.85238,1.03853 l -0.86475,0.10302 0.78959,-0.0403 c 0.43414,-0.0224 1.12742,-0.10262 1.54041,-0.17858 z m -95.282433,-0.49166 c 1.00967,-0.20434 2.22829,-0.89923 3.40582,-1.94127 0.18158,-0.16095 0.26266,-0.24703 0.18008,-0.19181 -0.0827,0.0552 -0.2349,0.17497 -0.33822,0.26577 -0.39856,0.34995 -1.94559,1.27303 -2.54026,1.51535 -0.34294,0.1398 -0.85023,0.29954 -1.12742,0.35466 -0.2772,0.0552 -0.42632,0.10343 -0.33161,0.10734 0.0948,0.004 0.43302,-0.0458 0.75161,-0.11004 z m 42.176583,-0.34765 c -0.20865,-0.61772 -0.25254,-1.33406 -0.14641,-2.39534 0.10171,-1.01899 0.16244,-1.32866 0.55659,-2.84992 0.14451,-0.557 0.24984,-1.0256 0.23411,-1.04124 -0.0337,-0.0333 -0.50689,1.47858 -0.66664,2.12877 -0.21486,0.87648 -0.30185,1.58861 -0.30295,2.48033 -0.001,0.88861 0.0674,1.3047 0.30686,1.861 0.17578,0.40837 0.1856,0.31127 0.0184,-0.1836 z m 35.70168,0 c -0.20865,-0.61772 -0.25295,-1.33406 -0.14642,-2.39534 0.10212,-1.01899 0.16245,-1.32866 0.55699,-2.84992 0.14451,-0.557 0.24984,-1.0256 0.23371,-1.04124 -0.0333,-0.0333 -0.50729,1.47858 -0.66664,2.12877 -0.21526,0.87648 -0.30144,1.58861 -0.30254,2.48033 -0.002,0.88861 0.0672,1.3047 0.30645,1.861 0.17538,0.40837 0.1856,0.31127 0.0184,-0.1836 z m -77.835973,-0.17888 c 1.20569,-0.30726 2.45487,-1.13364 3.84426,-2.54337 2.30254,-2.33621 4.58054,-5.93855 7.31451,-11.56704 l 0.83229,-1.71297 -0.20284,-0.0795 c -0.11234,-0.0439 -0.45287,-0.0626 -0.76605,-0.0423 -3.42575,0.22347 -10.46818,7.18062 -12.43651,12.28608 -0.38713,1.00335 -0.56531,1.82311 -0.56611,2.60018 -5.7e-4,0.65681 0.003,0.66864 0.25525,0.92068 0.23961,0.24002 0.28661,0.25565 0.75953,0.25565 0.27709,0 0.71162,-0.0528 0.96567,-0.11745 z m 21.75412,-0.41339 c 1.29538,-0.34685 2.86556,-1.33527 4.02354,-2.53354 l 0.28692,-0.29714 -0.47482,-0.34023 c -0.95635,-0.68467 -1.86501,-1.80066 -2.40356,-2.95164 -0.12527,-0.26777 -0.25375,-0.47091 -0.28542,-0.45137 -0.1405,0.087 -0.97589,1.42967 -1.36352,2.19191 -0.67996,1.33717 -1.0671,2.65841 -1.16931,3.98786 l -0.0497,0.64469 0.44395,-0.052 c 0.24433,-0.0287 0.69059,-0.11786 0.99193,-0.19853 z m 19.889223,-2.43804 c 0.0279,-0.14992 0.0196,-0.1879 -0.0251,-0.11274 -0.19141,0.32339 -0.29984,1.77141 -0.17538,2.33943 0.038,0.17377 0.0717,-0.10182 0.10694,-0.87378 0.0286,-0.62013 0.0704,-1.22884 0.0935,-1.35291 z m 35.70127,0 c 0.0283,-0.14992 0.02,-0.1879 -0.0251,-0.11274 -0.19141,0.32339 -0.29944,1.77141 -0.17537,2.33943 0.038,0.17377 0.0721,-0.10182 0.10733,-0.87378 0.029,-0.62013 0.07,-1.22884 0.0931,-1.35291 z m -57.483153,1.48599 c -0.0251,-0.0251 -0.0427,0.0195 -0.0396,0.0986 0.004,0.0877 0.0216,0.10532 0.0454,0.0455 0.0216,-0.054 0.0192,-0.11905 -0.006,-0.14411 z m -36.32301,-0.95044 c 0.65029,-0.58876 1.76008,-1.81599 2.18439,-2.41458 0.11705,-0.16516 -0.0337,-0.0302 -0.33432,0.30065 -0.30095,0.33081 -1.12311,1.17632 -1.82652,1.87903 -1.27464,1.27384 -1.28516,1.37716 -0.0236,0.2349 z m 75.236583,0 c 0.6503,-0.58876 1.76008,-1.81599 2.18439,-2.41458 0.11705,-0.16516 -0.0337,-0.0302 -0.33432,0.30065 -0.30095,0.33081 -1.12311,1.17632 -1.82652,1.87903 -1.27464,1.27384 -1.28516,1.37716 -0.0236,0.2349 z m -38.767963,-0.85383 c 0.10883,-0.34835 0.18049,-0.6506 0.15974,-0.67134 -0.12527,-0.12527 -0.4655,1.09495 -0.52733,1.89156 l -0.0407,0.52613 0.10523,-0.55629 c 0.0583,-0.30606 0.19462,-0.84161 0.30305,-1.19006 z m 0.34915,0.13038 c 0.42672,-1.20729 1.51816,-3.21631 2.25645,-4.15272 0.18509,-0.2344 0.21095,-0.31548 0.15503,-0.48383 -0.0669,-0.20084 -0.0702,-0.19883 -0.40798,0.2819 -0.34604,0.49206 -1.27263,2.04189 -1.54742,2.58836 -0.25675,0.51049 -0.82718,2.30765 -0.87067,2.74339 l -0.0415,0.41339 0.11515,-0.37581 c 0.0634,-0.20675 0.21646,-0.66313 0.34093,-1.01468 z m 5.73221,0.2321 c 0.16325,-0.16907 0.26387,-0.30726 0.22358,-0.30726 -0.0403,0 -0.34294,0.27639 -0.67295,0.61462 -0.45718,0.46861 -0.51049,0.54136 -0.22347,0.30686 0.20664,-0.16907 0.50929,-0.44546 0.67284,-0.61422 z m -50.24811,-2.41138 c 0.5163,-1.54472 1.304,-2.92698 2.74068,-4.81073 1.41163,-1.85088 2.7935,-3.32745 4.59387,-4.90934 1.82652,-1.60505 3.46444,-2.76414 4.81033,-3.40462 0.84862,-0.40436 0.72415,-0.42862 -0.18169,-0.0356 -2.19141,0.95044 -5.57287,3.58379 -7.62728,5.94006 -1.73543,1.98977 -2.82878,3.54311 -3.64694,5.18022 -0.53555,1.0715 -1.00135,2.38292 -1.13132,3.18424 -0.10724,0.66192 -0.0826,0.78919 0.0423,0.21766 0.0575,-0.26346 0.2376,-0.87648 0.40006,-1.36192 z m 31.53923,-0.9775 c 1.46214,-2.12997 2.78608,-4.39614 3.08513,-5.28164 0.13619,-0.40397 0.21606,-0.71484 0.17698,-0.69099 -0.0388,0.0243 -0.0704,0.0733 -0.0704,0.10964 0,0.10843 -2.59698,4.6099 -3.40462,5.90057 -1.06709,1.70637 -1.00486,1.60034 -0.86165,1.46565 0.0658,-0.0618 0.54928,-0.73829 1.07461,-1.50323 z m 20.953599,0.80794 c 0.22037,-0.29945 0.57934,-0.81064 0.79781,-1.13594 0.65451,-0.9748 2.13579,-4.13548 2.29594,-4.89963 0.0435,-0.20704 0.0388,-0.20433 -0.0752,0.0415 -0.0665,0.14482 -0.26897,0.62204 -0.44896,1.06128 -0.68748,1.6743 -1.62309,3.35992 -2.73758,4.9328 -0.50298,0.71012 -0.35466,0.71012 0.16796,0 z m -0.36208,-0.17027 c 2.24112,-3.17943 3.945984,-7.50512 3.945984,-10.0121 0,-0.62755 -0.115154,-0.92348 -0.411494,-1.05817 -0.25875,-0.11816 -0.44195,-0.11345 -0.98221,0.0243 -1.22563,0.31317 -2.85252,1.51455 -4.051999,2.99193 -0.29202,0.35977 -0.29323,0.36488 -0.16365,0.56371 0.335119,0.51521 0.573129,1.11529 0.571129,1.44099 -10e-4,0.32731 -0.0199,0.35346 -0.557399,0.80764 -0.30536,0.25835 -0.93371,0.87758 -1.396,1.37716 l -0.8405,0.90734 0.0283,0.61502 c 0.0622,1.37796 0.91015,2.34253 2.467399,2.80643 0.887,0.26427 0.87408,0.26858 1.39049,-0.4643 z m 66.496324,-3.18765 c 1.68561,-0.43102 3.08592,-1.56355 3.88133,-3.14114 0.30776,-0.60911 0.30265,-0.70421 -0.009,-0.15543 -1.04515,1.84416 -2.85684,3.12431 -4.75311,3.35761 l -0.52613,0.0649 0.42081,0.009 c 0.23059,0.005 0.67444,-0.0555 0.98612,-0.13539 z m -0.37472,-0.33752 c 2.10142,-0.40196 3.65085,-1.95059 4.68397,-4.68105 0.21446,-0.56652 0.63536,-2.01613 0.63536,-2.1876 0,-0.1843 -1.00686,-0.081 -1.52518,0.15664 -1.71578,0.78488 -3.84024,3.14735 -5.28244,5.87311 -0.22428,0.42401 -0.40788,0.7908 -0.40788,0.81505 0,0.14481 1.18646,0.15974 1.89617,0.0239 z m -68.906183,-1.22764 c 0.49366,-0.50608 0.86516,-0.92027 0.82648,-0.91947 -0.14571,0.002 -1.76399,1.61667 -1.76319,1.75878 8.5e-4,0.0795 0.009,0.12997 0.0199,0.11274 0.0105,-0.0171 0.42321,-0.44546 0.91677,-0.95205 z m 6.160529,0.11315 c 0.647894,-1.56817 1.075014,-3.33286 1.132544,-4.67915 l 0.0321,-0.75162 -0.11154,0.82678 c -0.19812,1.47116 -0.749314,3.53138 -1.427664,5.33646 -0.0314,0.0826 -0.0329,0.12918 -0.004,0.10372 0.0286,-0.0258 0.19923,-0.40206 0.37851,-0.83619 z m 23.530244,-1.15949 c 1.0264,-1.22173 2.20634,-2.4177 3.53419,-3.5827 1.83083,-1.60615 3.46674,-2.76373 4.81033,-3.40301 0.84862,-0.40436 0.72415,-0.42862 -0.18169,-0.0356 -2.1844,0.94733 -5.57959,3.58931 -7.61045,5.92202 -1.42266,1.63361 -1.60815,1.90138 -1.31653,1.90138 0.0497,0 0.39345,-0.36098 0.76415,-0.80212 z m 34.94344,0.29473 c 0.24934,-0.5136 1.13444,-1.84296 1.61237,-2.42391 0.26938,-0.3273 0.28852,-0.36638 0.092,-0.1879 -0.46891,0.42592 -1.75177,2.23099 -2.01643,2.83729 -0.0719,0.16446 -0.07,0.20675 0.005,0.20675 0.0532,0 0.19061,-0.19452 0.30696,-0.43223 z m 3.15869,-4.63215 c 1.46485,-1.43518 2.47521,-2.12446 3.87712,-2.64598 0.48615,-0.18079 0.67756,-0.21015 1.39009,-0.21406 0.71944,-0.004 0.89993,0.0219 1.38698,0.19923 0.6032,0.22037 1.19857,0.59467 1.59552,1.00335 0.1371,0.14091 0.28272,0.25675 0.32139,0.25716 0.12457,0.002 -0.57894,-0.67255 -1.01107,-0.96889 -1.55022,-1.06198 -3.45742,-0.98251 -5.45471,0.22789 -0.99204,0.6017 -2.8401,2.44275 -3.64774,3.63551 l -0.30565,0.45097 0.54407,-0.60129 c 0.29994,-0.33081 0.8859,-0.93561 1.304,-1.34389 z m -89.862093,0.73989 c 0.5609,-0.50228 2.48072,-2.02314 3.0757,-2.43613 0.25836,-0.17969 0.46981,-0.34023 0.46981,-0.35737 0,-0.0482 -0.47722,0.26537 -1.88615,1.24127 -0.37851,0.26236 -1.69975,1.38738 -2.39805,2.04268 l -0.41339,0.38794 0.36288,-0.24814 c 0.20003,-0.13669 0.55509,-0.4201 0.7892,-0.63025 z m -18.2513,-0.75633 c 1.09765,-0.83228 1.52357,-1.12942 2.21726,-1.54672 0.62785,-0.37811 0.70812,-0.47602 0.16596,-0.20273 -0.99203,0.49987 -2.72696,1.73733 -3.21,2.28922 -0.22087,0.25214 -0.20163,0.23961 0.82678,-0.53977 z m 75.236583,0 c 1.09765,-0.83228 1.52357,-1.12942 2.21726,-1.54672 0.62785,-0.37811 0.70813,-0.47602 0.16595,-0.20273 -0.99202,0.49987 -2.72695,1.73733 -3.20999,2.28922 -0.22087,0.25214 -0.20163,0.23961 0.82678,-0.53977 z m -53.853163,-0.5606 c 0.19141,-0.16756 1.75527,-1.11449 2.27198,-1.37595 0.46159,-0.2338 1.07812,-0.4643 1.44851,-0.54147 0.14442,-0.0302 0.21877,-0.0704 0.16476,-0.0889 -0.11435,-0.0395 -1.03342,0.11245 -1.2546,0.20715 -0.0827,0.0352 -0.37039,0.15653 -0.63887,0.26928 -0.71253,0.29914 -2.29323,1.36583 -2.93761,1.98205 l -0.5574,0.53355 0.67646,-0.42712 c 0.3719,-0.2349 0.7441,-0.48614 0.82677,-0.5586 z m 20.256009,-1.46294 c 0.26847,-0.15924 0.63807,-0.38442 0.82086,-0.50108 0.18279,-0.11624 0.36598,-0.21135 0.40707,-0.21135 0.0412,0 0.0556,-0.0188 0.0326,-0.0423 -0.13389,-0.13389 -2.245519,1.15718 -2.951639,1.80468 -0.31908,0.29242 -0.25645,0.26065 0.41339,-0.20785 0.43413,-0.30415 1.00877,-0.68277 1.277749,-0.84211 z m 15.208764,0.0579 c 0.72225,-1.26592 1.85047,-3.69544 2.60088,-5.59983 0.35116,-0.89182 0.84211,-2.47722 0.74931,-2.4197 -0.0325,0.0199 -0.26106,0.55159 -0.50809,1.18104 -0.24703,0.62985 -0.5579,1.38187 -0.69058,1.67119 -0.1879,0.40827 -1.863,4.16444 -2.52262,5.65585 -0.19652,0.44355 -0.0528,0.25484 0.3711,-0.48855 z m 35.65868,0.0752 c 0.6983,-1.21862 1.98316,-3.93375 2.42701,-5.12972 0.11434,-0.31007 0.26778,-0.6988 0.33983,-0.86436 0.1863,-0.42902 0.6984,-2.1456 0.62755,-2.10141 -0.0333,0.0203 -0.26266,0.55239 -0.50929,1.18184 -0.24664,0.62985 -0.5583,1.38187 -0.69059,1.67119 -0.18831,0.40827 -1.863,4.16444 -2.52222,5.65585 -0.1887,0.42521 -0.0622,0.26626 0.32771,-0.41339 z m -35.62581,-1.33407 c 2.52221,-5.37715 4.43813,-10.39462 4.14761,-10.86393 -0.0575,-0.0936 -0.10533,-0.0889 -0.33352,0.0341 -0.35236,0.18981 -1.52477,1.40733 -2.21376,2.29904 -2.55668,3.30871 -4.08416,6.79079 -3.7733,8.60398 0.10884,0.63576 0.32259,1.01748 0.84051,1.50212 l 0.39264,0.36719 0.15263,-0.29483 c 0.0838,-0.16205 0.43804,-0.90344 0.78719,-1.64764 z m 35.70167,0 c 2.52262,-5.37715 4.43773,-10.39462 4.14801,-10.86393 -0.0579,-0.0936 -0.10612,-0.0889 -0.33352,0.0341 -0.35275,0.18981 -1.52557,1.40733 -2.21375,2.29904 -2.55669,3.30871 -4.08497,6.79079 -3.7741,8.60398 0.10923,0.63576 0.32259,1.01748 0.8409,1.50212 l 0.39265,0.36719 0.15222,-0.29483 c 0.0842,-0.16205 0.43804,-0.90344 0.78759,-1.64764 z m -63.841403,0.17498 c 0.30535,-0.75753 1.1208,-2.78098 1.81219,-4.49676 1.39469,-3.46093 2.75822,-6.99943 2.71433,-7.04363 -0.0156,-0.0156 -0.31819,0.69169 -0.67255,1.57208 -0.35386,0.88039 -1.00245,2.48033 -1.44129,3.55493 -0.43844,1.07501 -1.04525,2.59698 -1.3482,3.38227 -0.30305,0.78569 -0.80563,2.08768 -1.1173,2.89371 -0.31157,0.80603 -0.58876,1.53339 -0.61572,1.61597 -0.15503,0.47562 0.17728,-0.25955 0.66854,-1.47857 z m 13.912769,0.0133 c 0.49597,-0.24784 1.18926,-0.53315 1.54081,-0.63457 0.5574,-0.16094 0.60049,-0.18479 0.33823,-0.1871 -0.77476,-0.007 -1.96522,0.40667 -2.89371,1.00606 -0.489359,0.31548 -1.369349,1.04404 -1.414839,1.17122 -0.0136,0.0372 0.3246,-0.15113 0.75161,-0.4188 0.42672,-0.26738 1.181839,-0.68898 1.677899,-0.93681 z m 10.070434,0.43172 c -0.1409,-0.29944 -0.29443,-0.78168 -0.34063,-1.071 -0.0959,-0.60289 -0.0352,-1.73613 0.12607,-2.35626 0.0587,-0.22468 0.0928,-0.422 0.0764,-0.43884 -0.0591,-0.0587 -0.33902,1.14897 -0.38753,1.67119 -0.0768,0.82718 0.13148,1.71228 0.58757,2.49556 0.2364,0.40677 0.20984,0.27559 -0.0618,-0.30065 z m 35.70167,0 c -0.14089,-0.29944 -0.29443,-0.78168 -0.34063,-1.071 -0.0959,-0.60289 -0.0352,-1.73613 0.12608,-2.35626 0.0587,-0.22468 0.0928,-0.422 0.0764,-0.43884 -0.0591,-0.0587 -0.33903,1.14897 -0.38753,1.67119 -0.0768,0.82718 0.13148,1.71228 0.58756,2.49556 0.2364,0.40677 0.20985,0.27559 -0.0618,-0.30065 z m -84.254743,-0.43212 c 0.0947,-0.0407 0.10843,-0.0646 0.0376,-0.0646 -0.0622,0 -0.18049,0.029 -0.26307,0.0646 -0.0948,0.0407 -0.10883,0.0645 -0.0376,0.0645 0.0618,0 0.18039,-0.029 0.26307,-0.0645 z m 75.236583,0 c 0.0947,-0.0407 0.10843,-0.0646 0.0376,-0.0646 -0.0622,0 -0.18049,0.029 -0.26307,0.0646 -0.0948,0.0407 -0.10883,0.0645 -0.0376,0.0645 0.0618,0 0.18039,-0.029 0.26307,-0.0645 z m -26.65294,-4.50969 c 0.52332,-1.28716 1.65505,-3.3513 2.84391,-5.18614 0.84601,-1.3055 0.82958,-1.34308 -0.081,-0.1879 -0.70351,0.89252 -1.48409,2.07826 -1.95419,2.96887 -0.72466,1.37245 -1.4872,3.53219 -1.47157,4.16755 0.004,0.15654 0.0591,0.0384 0.17388,-0.37189 0.0927,-0.33081 0.31277,-0.95636 0.48895,-1.39049 z m 35.70167,0 c 0.52333,-1.28716 1.65466,-3.3513 2.84431,-5.18614 0.84602,-1.3055 0.82878,-1.34308 -0.081,-0.1879 -0.70351,0.89252 -1.48448,2.07826 -1.95459,2.96887 -0.72466,1.37245 -1.4872,3.53219 -1.47157,4.16755 0.004,0.15654 0.0591,0.0384 0.17388,-0.37189 0.0927,-0.33081 0.31277,-0.95636 0.48895,-1.39049 z m -57.352473,-0.33823 c 0.64979,-1.60544 2.00932,-5.28946 2.14992,-5.82501 0.10643,-0.40477 -0.10302,0.0674 -0.48274,1.08984 -0.21526,0.57895 -0.58917,1.55955 -0.83108,2.17969 -0.39886,1.02209 -1.40612,3.68952 -1.53259,4.05871 -0.16005,0.46741 0.30736,-0.54136 0.69649,-1.50323 z m 2.34013,-7.06517 c 0,-0.0411 -0.0329,-0.0242 -0.0728,0.0376 -0.0404,0.0622 -0.0729,0.14682 -0.0729,0.1879 0,0.0415 0.0325,0.0247 0.0729,-0.0376 0.0399,-0.0618 0.0728,-0.14641 0.0728,-0.1879 z"
       style="fill:#ffffff;fill-opacity:1;fill-rule:nonzero;stroke:none;stroke-width:0.100215"
       id="path960" />
  </g>
</svg>
